<svg width="197" height="35"><defs><path id="logo-color_svg__a" d="M.424.45h5.404v7.767H.424z"></path><path id="logo-color_svg__c" d="M.138.45h6.113v7.767H.138z"></path><path id="logo-color_svg__e" d="M0 0h91.186v22.464H0z"></path><path id="logo-color_svg__g" d="M.009.593h10.68v21.154H.01z"></path><path id="logo-color_svg__i" d="M.313.27h18.54v14.706H.313z"></path></defs><g fill="none" fill-rule="evenodd"><g transform="translate(42.432 .175)"><mask id="logo-color_svg__b" fill="#fff"><use xlink:href="#logo-color_svg__a"></use></mask><path d="M1.601 4.777h1.434c.53 0 .934.101 1.199.302.26.197.387.48.387.868 0 .393-.13.681-.398.88-.274.202-.686.304-1.227.304H1.6V4.777zm2.19-1.358c-.227.193-.558.291-.983.291H1.6V1.496H2.74c.468 0 .822.095 1.052.282.226.186.336.457.336.83 0 .353-.11.62-.335.81zm.723.623c.22-.152.396-.337.527-.55a1.68 1.68 0 0 0 .25-.894c0-.387-.09-.74-.268-1.047a2.132 2.132 0 0 0-.777-.77 2.212 2.212 0 0 0-.752-.256A7.419 7.419 0 0 0 2.299.45H.424v7.768h2.848c.72 0 1.333-.214 1.818-.636.49-.426.738-.958.738-1.581 0-.5-.13-.928-.385-1.27-.22-.297-.533-.527-.929-.688z" fill="#3960AC" mask="url(#logo-color_svg__b)"></path></g><path d="M56.173 1.727h-1.12v1.268h-2.121l-1.384 3.351a6.475 6.475 0 0 0-.131.371l-.13.392a18.178 18.178 0 0 0-.12-.406 3.24 3.24 0 0 0-.121-.356L49.68 2.995h-1.243l2.213 5.3-.956 2.255h1.145l2.892-6.585h1.321v3.25c0 .462.11.8.326 1.003.215.202.57.305 1.059.305h.615V7.45h-.581c-.109 0-.186-.024-.23-.073-.046-.052-.07-.144-.07-.274V3.965h.881v-.97h-.88V1.727zM59.228 4.268a1.67 1.67 0 0 1 1.115-.395c.425 0 .792.13 1.087.387.27.234.441.537.512.903H58.71c.065-.357.24-.657.518-.895m1.125-1.403c-.82 0-1.496.267-2.006.794-.509.526-.767 1.223-.767 2.071 0 .359.062.707.184 1.034.124.328.303.621.533.871.264.283.583.504.949.658.366.153.764.23 1.184.23.509 0 .972-.096 1.38-.285a3.374 3.374 0 0 0 1.123-.881L63 7.28l-.815-.654-.061.07c-.232.267-.49.47-.768.606a2.02 2.02 0 0 1-.895.203c-.497 0-.913-.142-1.236-.421a1.47 1.47 0 0 1-.516-.99h4.467v-.166c0-.911-.263-1.657-.779-2.216-.518-.563-1.206-.847-2.043-.847" fill="#3960AC"></path><g transform="translate(64.272 .175)"><mask id="logo-color_svg__d" fill="#fff"><use xlink:href="#logo-color_svg__c"></use></mask><path d="M1.953 7.131h-.627V1.54h.627c1.029 0 1.812.236 2.328.702.513.464.773 1.169.773 2.094 0 .921-.26 1.625-.773 2.09-.516.468-1.3.705-2.328.705M5.107 1.44C4.352.782 3.24.449 1.803.449H.138v7.768h1.665c1.438 0 2.549-.333 3.304-.99.76-.66 1.144-1.632 1.144-2.891 0-1.263-.385-2.238-1.144-2.897" fill="#3960AC" mask="url(#logo-color_svg__d)"></path></g><path d="M75.1 4.402c.32.333.48.765.48 1.284 0 .523-.16.956-.48 1.288-.318.33-.73.497-1.227.497-.496 0-.908-.167-1.226-.495-.32-.33-.48-.763-.48-1.29 0-.523.161-.956.48-1.286.318-.331.73-.498 1.226-.498.497 0 .909.168 1.227.5zm.5-.725a2.444 2.444 0 0 0-.71-.529 2.577 2.577 0 0 0-1.142-.254c-.817 0-1.484.258-1.984.77-.499.51-.751 1.187-.751 2.013 0 .38.064.74.19 1.066.127.327.318.624.568.884a2.735 2.735 0 0 0 1.977.833c.42 0 .797-.08 1.124-.24.248-.12.468-.288.66-.5v.673h1.114V2.995H75.6v.682zM80.074 2.894c-.304 0-.592.06-.856.18-.201.091-.398.22-.586.386v-.465h-1.104v5.397h1.104V5.41c0-.511.109-.898.323-1.148.21-.245.533-.37.96-.37.373 0 .638.112.81.34.174.235.262.619.262 1.14v3.02h1.115V5.28c0-.733-.182-1.32-.541-1.742-.363-.428-.863-.644-1.487-.644M86.566 6.967c-.14.177-.308.312-.504.402-.197.09-.428.136-.687.136-.482 0-.862-.164-1.163-.5-.3-.335-.452-.775-.452-1.309 0-.534.154-.977.456-1.316.305-.342.684-.507 1.159-.507.243 0 .463.04.651.12.188.08.357.206.504.374l.074.084.722-.834-.071-.064a2.583 2.583 0 0 0-.847-.518 2.996 2.996 0 0 0-1.033-.17c-.398 0-.768.066-1.1.197-.335.133-.632.33-.88.586a2.7 2.7 0 0 0-.6.924 3.077 3.077 0 0 0-.203 1.124c0 .4.068.778.203 1.122.134.345.336.655.599.92.247.254.543.45.88.584.336.134.707.201 1.1.201.385 0 .737-.06 1.045-.178.309-.119.606-.309.885-.564l.07-.064-.735-.844-.073.094zM89.474 4.268a1.67 1.67 0 0 1 1.115-.395c.426 0 .792.13 1.088.387.27.234.44.537.51.903h-3.231c.066-.357.24-.657.518-.895zm3.946 1.66c0-.911-.261-1.657-.778-2.216-.518-.563-1.205-.847-2.043-.847-.821 0-1.496.267-2.006.794-.51.526-.767 1.223-.767 2.071 0 .359.062.707.184 1.034.124.328.303.621.534.871.263.284.581.504.948.658.365.153.765.23 1.185.23.508 0 .972-.096 1.379-.285a3.38 3.38 0 0 0 1.123-.881l.066-.077-.814-.654-.062.07c-.232.267-.49.47-.768.606a2.015 2.015 0 0 1-.895.203c-.497 0-.912-.142-1.236-.421-.3-.26-.47-.584-.516-.99h4.466v-.166zM0 7.212v24.726h.002l5.427-1.394V8.606z" fill="#3960AC"></path><path fill="#79CBC6" d="M31.645 31.992l-5.429 1.394V5.764l5.429 1.394z"></path><path fill="#4882C2" d="M8.608 32.689l5.428-1.394V19.521l-5.428-1.394z"></path><path fill="#2CBDC3" d="M17.585 15.971l5.43-1.394V29.14l-5.43-1.394z"></path><g transform="translate(41.184 12.031)"><mask id="logo-color_svg__f" fill="#fff"><use xlink:href="#logo-color_svg__e"></use></mask><path fill="#3960AC" mask="url(#logo-color_svg__f)" d="M70.24 3.06h8.544v-1.9h-8.545z"></path><g mask="url(#logo-color_svg__f)"><g transform="translate(80.496)"><mask id="logo-color_svg__h" fill="#fff"><use xlink:href="#logo-color_svg__g"></use></mask><path d="M8.956 2.477H4.59L4.884.592H2.966l-.301 1.885H.278v1.9h2.118L.01 21.52h1.998L4.329 4.377h3.86a.6.6 0 0 1 .6.6v14.87H5.54v1.9h5.15V4.212c0-.957-.778-1.735-1.734-1.735" fill="#3960AC" mask="url(#logo-color_svg__h)"></path></g><path d="M69.205 8.969h2.512l-1.87 12.552h7.977c.892 0 1.615-.723 1.615-1.615v-4.727h-1.9v3.664c0 .43-.349.778-.78.778h-4.642l1.524-10.652h6.177v-1.9H69.205v1.9zM58.09 7.71l-.605-5.235h-1.902l.605 5.235zM57.913 9.747H56.01l-.678 7.394h1.9zM67.124 2.474h-1.902l-.605 5.236h1.902zM64.621 9.747l.682 7.394h1.9l-.68-7.394z" fill="#3960AC"></path><path fill="#3960AC" d="M64.015.702h-1.9v21.126h4.989v-1.9h-3.089zM58.24 19.278a.65.65 0 0 1-.65.65h-1.644v1.9h2.46c.956 0 1.733-.778 1.733-1.73L60.783.703h-1.9l-.643 18.576zM52.633 3.287v4.46h-4.18V2.804h3.698c.266 0 .482.216.482.482zm-.642 10.743h2.542v-1.9h-2.542V9.646h2.542v-7.03c0-.943-.769-1.711-1.711-1.711h-6.268v8.74h3.538V18.9l-1.33.346v-8.197h-1.899v8.692l-1.061.276v1.963l8.91-2.32v-1.964l-2.72.709V14.03z"></path><g transform="translate(23.712 7.488)"><mask id="logo-color_svg__j" fill="#fff"><use xlink:href="#logo-color_svg__i"></use></mask><path d="M17.12.27H.312v1.901H4.82v12.805h1.9V2.171h9.662c.316 0 .573.256.573.572v9.08h-3.25v1.9h5.15V2.006c0-.957-.778-1.735-1.735-1.735" fill="#3960AC" mask="url(#logo-color_svg__j)"></path></g><path fill="#3960AC" d="M39.757.702h-1.9v1.356h-9.122V.702h-1.9v1.356h-3.706v1.9h3.706v2.546h1.9V3.958h9.122v2.546h1.9V3.958h4.25v-1.9h-4.25zM19.289 2.058h-7.755V.702h-1.9v1.356H.524v3.926h1.899V3.958H18.62c.277 0 .502.224.502.501v1.525h1.9V3.792c0-.956-.778-1.734-1.734-1.734M17.352 9.269c.442-.419.584-1.09.353-1.671-.247-.618-.839-.972-1.626-.972H3.309v1.9H14.75c.122 0 .18.064.208.118a.363.363 0 0 1-.03.348l-3.893 3.588H.523v1.9H11.22v5.874H6.498v1.9h6.622V14.48h7.525v-1.9h-6.837c.698-.647 2.42-2.248 3.544-3.311"></path></g></g></g></svg>